<?xml version="1.0" encoding="UTF-8"?>
<svg xmlns="http://www.w3.org/2000/svg" viewBox="0 0 512 512" width="512" height="512"><g id="outline"><path d="M384,392a24,24,0,0,0,0-48V272a8,8,0,0,0-8-8H352V192a8,8,0,0,0-8-8h-8V112a8,8,0,0,0-8-8H288.135l9.946-7.956A37.228,37.228,0,0,0,310.1,55.357a26.889,26.889,0,0,0-44.521-10.509L255.328,55.1,245.081,44.848a26.888,26.888,0,0,0-44.52,10.509,37.224,37.224,0,0,0,12.015,40.687L222.521,104H184a8,8,0,0,0-8,8v72h-8a8,8,0,0,0-8,8v72H136a8,8,0,0,0-8,8v72a24,24,0,0,0,0,48H232v32a8,8,0,0,0-8,8,21.333,21.333,0,0,1-17.1,20.862l-16.465,3.293A8,8,0,0,0,184,464v24a8,8,0,0,0,8,8H320a8,8,0,0,0,8-8V464a8,8,0,0,0-6.431-7.845L305.1,452.862A21.333,21.333,0,0,1,288,432a8,8,0,0,0-8-8V392ZM222.571,83.55a21.163,21.163,0,0,1-6.831-23.132,10.887,10.887,0,0,1,18.027-4.256l15.9,15.9a8,8,0,0,0,11.314,0l15.9-15.9a10.886,10.886,0,0,1,18.026,4.256,21.164,21.164,0,0,1-6.83,23.132L262.522,104H248.135ZM320,120v18.343c-.812-.392-1.623-.84-2.517-1.336a35.893,35.893,0,0,0-36.571,0c-3.245,1.8-5.389,2.993-10.516,2.993s-7.27-1.19-10.515-2.993a35.889,35.889,0,0,0-36.569,0c-3.245,1.8-5.387,2.993-10.514,2.993s-7.27-1.19-10.513-2.993A35.628,35.628,0,0,0,192,132.815V120ZM192,149.658c.811.391,1.621.839,2.514,1.335a35.889,35.889,0,0,0,36.569,0c3.244-1.8,5.387-2.993,10.514-2.993s7.269,1.19,10.514,2.993a35.893,35.893,0,0,0,36.571,0c3.245-1.8,5.388-2.993,10.515-2.993s7.272,1.19,10.517,2.993A35.624,35.624,0,0,0,320,155.185V184H192ZM336,200v19.117a36.941,36.941,0,0,1-6.291-2.4,48.711,48.711,0,0,0-41.823,0,32.742,32.742,0,0,1-28.58,0,48.7,48.7,0,0,0-41.82,0,32.735,32.735,0,0,1-28.577,0A45.716,45.716,0,0,0,176,212.583V200ZM176,228.883a36.858,36.858,0,0,1,6.288,2.4,48.7,48.7,0,0,0,41.819,0,32.737,32.737,0,0,1,28.578,0,48.709,48.709,0,0,0,41.822,0,32.744,32.744,0,0,1,28.581,0A45.708,45.708,0,0,0,336,235.417V264H176ZM368,280v19.613a57.838,57.838,0,0,1-13.473-3.2,82.012,82.012,0,0,0-53.062,0A57.354,57.354,0,0,1,279.992,300a57.356,57.356,0,0,1-21.468-3.589A73.294,73.294,0,0,0,232,292a73.32,73.32,0,0,0-26.529,4.41A57.336,57.336,0,0,1,184,300a57.328,57.328,0,0,1-21.468-3.59A72.2,72.2,0,0,0,144,292.325V280ZM144,308.387a57.792,57.792,0,0,1,13.468,3.2A73.318,73.318,0,0,0,184,316a73.322,73.322,0,0,0,26.53-4.41A57.334,57.334,0,0,1,232,308a57.33,57.33,0,0,1,21.469,3.59A73.318,73.318,0,0,0,279.992,316a73.329,73.329,0,0,0,26.531-4.41,66.014,66.014,0,0,1,42.946,0A72.222,72.222,0,0,0,368,315.675V344H144ZM120,368a8.009,8.009,0,0,1,8-8H384a8,8,0,0,1,0,16H128A8.009,8.009,0,0,1,120,368ZM301.966,468.552,312,470.559V480H200v-9.441l10.035-2.007A37.408,37.408,0,0,0,239.128,440h33.744A37.408,37.408,0,0,0,301.966,468.552ZM264,424H248V392h16Z"/><path d="M96,192a8,8,0,0,0,8-8V168a8,8,0,0,0-16,0v16A8,8,0,0,0,96,192Z"/><path d="M104,232a8,8,0,0,0-16,0v16a8,8,0,0,0,16,0Z"/><path d="M120,200a8,8,0,0,0,0,16h16a8,8,0,0,0,0-16Z"/><path d="M56,216H72a8,8,0,0,0,0-16H56a8,8,0,0,0,0,16Z"/><path d="M73.372,196.687a8,8,0,0,0,11.315-11.315L73.373,174.059a8,8,0,0,0-11.314,11.314Z"/><path d="M107.313,230.628l11.314,11.313a8,8,0,0,0,11.314-11.314l-11.313-11.314a8,8,0,0,0-11.315,11.315Z"/><path d="M107.313,196.687a8,8,0,0,0,11.315,0l11.313-11.314a8,8,0,0,0-11.314-11.314l-11.314,11.313A8,8,0,0,0,107.313,196.687Z"/><path d="M67.716,244.284a7.974,7.974,0,0,0,5.657-2.343l11.314-11.313a8,8,0,0,0-11.315-11.315L62.059,230.627a8,8,0,0,0,5.657,13.657Z"/><path d="M411.578,239.155l16-8a8,8,0,1,0-7.156-14.31l-16,8a8,8,0,1,0,7.156,14.31Z"/><path d="M76.422,295.155l16,8a8,8,0,1,0,7.156-14.31l-16-8a8,8,0,0,0-7.156,14.31Z"/><path d="M127.155,92.422a8,8,0,1,0-14.31,7.156l8,16a8,8,0,0,0,14.31-7.156Z"/><path d="M408,168a8,8,0,0,0,5.657-13.657l-8-8a8,8,0,0,0-11.314,11.314l8,8A7.974,7.974,0,0,0,408,168Z"/><path d="M26.343,109.657A8,8,0,1,0,37.657,98.343l-8-8a8,8,0,0,0-11.314,11.314Z"/><path d="M461.657,66.343a8,8,0,0,0-11.314,0l-8,8a8,8,0,0,0,11.314,11.314l8-8A8,8,0,0,0,461.657,66.343Z"/><path d="M56,72a7.974,7.974,0,0,0,5.657-2.343l16-16A8,8,0,0,0,66.343,42.343l-16,16A8,8,0,0,0,56,72Z"/><circle cx="144" cy="48" r="8"/><circle cx="362" cy="136" r="8"/><circle cx="448" cy="176" r="8"/><circle cx="40" cy="256" r="8"/><circle cx="392" cy="200" r="8"/><circle cx="424" cy="280" r="8"/><circle cx="64" cy="136" r="8"/><circle cx="432" cy="120" r="8"/><path d="M371.9,16a8,8,0,0,0-8,8v8a8,8,0,0,0,16,0V24A8,8,0,0,0,371.9,16Z"/><path d="M363.9,96a8,8,0,0,0,16,0V88a8,8,0,0,0-16,0Z"/><path d="M327.9,60a8,8,0,0,0,8,8h8a8,8,0,0,0,0-16h-8A8,8,0,0,0,327.9,60Z"/><path d="M407.9,52h-8a8,8,0,0,0,0,16h8a8,8,0,0,0,0-16Z"/><path d="M352.1,28.887A8,8,0,1,0,340.786,40.2l5.657,5.657a8,8,0,1,0,11.315-11.314Z"/><path d="M386.041,85.456l5.657,5.657A8,8,0,1,0,403.013,79.8l-5.658-5.657a8,8,0,1,0-11.314,11.314Z"/><path d="M357.758,74.142a8,8,0,0,0-11.315,0L340.786,79.8A8,8,0,0,0,352.1,91.113l5.657-5.657A8,8,0,0,0,357.758,74.142Z"/><path d="M391.7,28.887l-5.657,5.657a8,8,0,0,0,11.314,11.314l5.658-5.657A8,8,0,1,0,391.7,28.887Z"/><circle cx="371.899" cy="59" r="8"/></g></svg>
