<svg id="Capa_1" enable-background="new 0 0 512 512" height="512" viewBox="0 0 512 512" width="512" xmlns="http://www.w3.org/2000/svg"><g id="XMLID_322_"><circle id="XMLID_407_" cx="256" cy="142.224" r="12"/><path id="XMLID_648_" d="m451.368 458.67c-24.837-13.471-42.794-36.967-49.269-64.465l-32.643-138.634c-5.89-25.017-21.325-45.984-43.462-59.041-5.294-3.123-10.8-5.688-16.45-7.693 5.939-23.477 15.715-47.413 29.11-71.233 4.764-8.472 7.049-18.122 6.609-27.908-1.035-22.985-17.425-42.382-39.015-48.052v-31.644c0-5.523-4.478-10-10-10s-10 4.477-10 10v30.454c-11.488 1.574-22.159 6.937-30.25 15.13-8.09-8.192-18.768-13.556-30.25-15.131v-30.453c0-5.523-4.477-10-10-10s-10 4.477-10 10v31.644c-21.59 5.671-37.979 25.068-39.014 48.052-.44 9.785 1.845 19.436 6.61 27.908 13.394 23.819 23.17 47.755 29.108 71.233-5.65 2.005-11.156 4.57-16.45 7.693-22.137 13.057-37.573 34.024-43.463 59.041l-32.639 138.634c-6.474 27.495-24.432 50.991-49.268 64.463-4.45 2.414-6.394 7.772-4.527 12.478 9.844 24.817 33.46 40.854 60.164 40.854 17.892 0 34.523-7.205 46.577-19.761 12.054 12.556 28.686 19.761 46.577 19.761 17.892 0 34.523-7.205 46.577-19.761 12.054 12.556 28.686 19.761 46.576 19.761 17.892 0 34.523-7.205 46.577-19.761 12.054 12.556 28.686 19.761 46.578 19.761 26.703 0 50.319-16.035 60.165-40.852 1.867-4.706-.078-10.064-4.528-12.478zm-260.59-350.869c-2.93-5.21-4.335-11.16-4.063-17.205.738-16.398 14.16-29.841 30.554-30.605 12.55-.581 24 5.923 29.912 16.982 1.694 3.168 4.955 5.162 8.532 5.266-6.494.153-11.713 5.454-11.713 11.985 0 6.627 5.373 12 12 12s12-5.373 12-12c0-6.531-5.219-11.832-11.713-11.985 3.576-.104 6.839-2.098 8.532-5.266 5.911-11.059 17.355-17.577 29.91-16.981 16.396.764 29.817 14.208 30.555 30.604.272 6.047-1.133 11.997-4.062 17.207-14.319 25.464-24.782 51.154-31.147 76.448-11.246-1.397-22.753-.737-34.075 2.092-11.322-2.828-22.828-3.488-34.074-2.091-6.366-25.295-16.829-50.986-31.148-76.451zm-28.769 152.354c4.629-19.66 16.759-36.137 34.155-46.398s37.686-12.904 57.131-7.444c1.769.497 3.64.497 5.407 0 19.443-5.459 39.733-2.817 57.132 7.444 17.396 10.261 29.526 26.738 34.155 46.398l23.672 100.536c-7.529 10.456-19.456 16.62-32.463 16.62-13.984 0-26.729-7.12-34.091-19.045-1.821-2.951-5.041-4.747-8.509-4.747s-6.688 1.796-8.509 4.747c-7.362 11.925-20.106 19.045-34.091 19.045s-26.729-7.12-34.09-19.045c-1.821-2.951-5.042-4.747-8.509-4.747s-6.688 1.796-8.509 4.747c-7.362 11.925-20.106 19.045-34.091 19.045-13.007 0-24.935-6.165-32.463-16.621zm233.722 231.845c-15.616 0-29.848-7.95-38.068-21.266-1.821-2.951-5.041-4.747-8.509-4.747s-6.688 1.796-8.509 4.747c-8.221 13.316-22.453 21.266-38.069 21.266s-29.847-7.95-38.067-21.266c-1.821-2.951-5.042-4.747-8.509-4.747-3.468 0-6.688 1.796-8.509 4.747-8.221 13.316-22.452 21.266-38.068 21.266s-29.847-7.95-38.068-21.266c-1.822-2.951-5.042-4.747-8.509-4.747-3.468 0-6.688 1.796-8.509 4.747-8.221 13.316-22.452 21.266-38.068 21.266-15.599 0-29.673-7.918-37.762-20.726 25.508-16.664 43.826-42.61 50.86-72.485l3.515-14.93c10.533 8.612 23.801 13.453 37.918 13.453 16.298 0 31.469-6.444 42.6-17.704 11.13 11.26 26.302 17.704 42.6 17.704s31.469-6.444 42.6-17.704c11.131 11.26 26.302 17.704 42.6 17.704 14.118 0 27.385-4.841 37.918-13.453l3.515 14.93c7.034 29.878 25.352 55.825 50.859 72.488-8.09 12.806-22.163 20.723-37.761 20.723z"/></g></svg>