<?xml version="1.0" encoding="iso-8859-1"?>
<!-- Generator: Adobe Illustrator 19.0.0, SVG Export Plug-In . SVG Version: 6.00 Build 0)  -->
<svg version="1.1" id="Capa_1" xmlns="http://www.w3.org/2000/svg" xmlns:xlink="http://www.w3.org/1999/xlink" x="0px" y="0px"
	 viewBox="0 0 512.001 512.001" style="enable-background:new 0 0 512.001 512.001;" xml:space="preserve">
<g>
	<g>
		<path d="M276,326.001c-5.52,0-10,4.48-10,10c0,5.52,4.48,10,10,10c5.52,0,10-4.48,10-10C286,330.481,281.52,326.001,276,326.001z"
			/>
	</g>
</g>
<g>
	<g>
		<path d="M176,186.001c-5.52,0-10,4.48-10,10s4.48,10,10,10s10-4.48,10-10S181.52,186.001,176,186.001z"/>
	</g>
</g>
<g>
	<g>
		<path d="M502,266.001h-33v-60h10c4.142,0,7.854-2.554,9.338-6.421l23-60c1.178-3.074,0.768-6.532-1.098-9.245
			c-1.866-2.713-4.947-4.334-8.24-4.334h-73v-20h30c4.756,0,8.854-3.35,9.8-8.01c0.946-4.66-1.521-9.343-5.899-11.198l-203-86
			c-2.492-1.057-5.309-1.057-7.801,0l-203,86c-4.379,1.855-6.846,6.538-5.899,11.198c0.946,4.66,5.044,8.01,9.8,8.01h30v20H10
			c-3.292,0-6.375,1.621-8.24,4.334c-1.866,2.713-2.276,6.171-1.098,9.245l23,60c1.483,3.868,5.197,6.421,9.338,6.421h10v60H10
			c-5.523,0-10,4.478-10,10v40c0,5.522,4.477,10,10,10h13v166H10c-5.523,0-10,4.478-10,10c0,5.522,4.477,10,10,10
			c6.04,0,488.048,0,492,0c5.522,0,10-4.478,10-10c0-5.522-4.478-10-10-10h-13v-165h13c5.522,0,10-4.478,10-10v-41
			C512,270.479,507.522,266.001,502,266.001z M429,156.001v-10h58.457l-15.333,40H389v-20h30
			C424.522,166.001,429,161.523,429,156.001z M409,426.001v23H103v-23C115.477,426.001,396.869,426.001,409,426.001z M123,347.001
			H43v-21h80V347.001z M123,266.001H63v-60h60V266.001z M206,406.001v-90c0-27.57,22.43-50,50-50
			c13.352,0,25.91,5.201,35.355,14.639c9.444,9.451,14.645,22.01,14.645,35.361v90H206z M369,406.001h-43v-90
			c0-18.691-7.279-36.27-20.502-49.504c-13.228-13.216-30.806-20.496-49.498-20.496c-38.598,0-70,31.402-70,70v90h-43v-240h226
			V406.001z M103,146.001v-40h306v40H103z M389,206.001h60v60h-60V206.001z M256,20.862l153.76,65.139H102.24L256,20.862z
			 M39.876,186.001l-15.333-40H83v10c0,5.522,4.477,10,10,10h30v20H39.876z M20,306.001v-20h103v20H20z M43,367.001h80v39H93
			c-5.523,0-10,4.478-10,10v33H73c-2.777,0-5.43,1.155-7.322,3.189L43,476.57V367.001z M55.96,492.001l21.396-23
			c11.106,0,331.003,0,357.289,0l21.396,23H55.96z M469,476.569l-22.678-24.379c-1.892-2.033-4.544-3.189-7.322-3.189h-10v-33
			c0-5.522-4.478-10-10-10h-30v-40h80V476.569z M469,346.001h-80v-19h80V346.001z M492,307.001c-6.845,0-97.882,0-103,0v-21h103
			V307.001z"/>
	</g>
</g>
<g>
	<g>
		<path d="M336,186.001H216c-5.523,0-10,4.478-10,10c0,5.522,4.477,10,10,10h120c5.522,0,10-4.478,10-10
			C346,190.479,341.522,186.001,336,186.001z"/>
	</g>
</g>
<g>
</g>
<g>
</g>
<g>
</g>
<g>
</g>
<g>
</g>
<g>
</g>
<g>
</g>
<g>
</g>
<g>
</g>
<g>
</g>
<g>
</g>
<g>
</g>
<g>
</g>
<g>
</g>
<g>
</g>
</svg>
