<svg width="726" height="726" viewBox="0 0 726 726" fill="none" xmlns="http://www.w3.org/2000/svg">
<g clip-path="url(#clip0)">
<path d="M520.263 393.036C520.82 393.595 521.482 394.037 522.21 394.339C522.938 394.64 523.719 394.795 524.507 394.794H529.804C531.396 394.794 532.922 394.161 534.047 393.036C535.172 391.911 535.804 390.384 535.804 388.793C535.804 387.202 535.172 385.676 534.047 384.55C532.921 383.425 531.395 382.793 529.804 382.793L524.506 382.793C523.319 382.793 522.159 383.145 521.172 383.804C520.186 384.464 519.416 385.401 518.962 386.497C518.508 387.594 518.389 388.8 518.621 389.964C518.853 391.128 519.424 392.197 520.263 393.036V393.036Z" fill="black"/>
<path d="M354.286 394.794L504.501 394.794C506.093 394.793 507.619 394.161 508.744 393.036C509.869 391.911 510.501 390.384 510.501 388.793C510.501 387.202 509.869 385.676 508.743 384.55C507.618 383.425 506.092 382.793 504.501 382.793L354.286 382.794C352.704 382.807 351.19 383.445 350.075 384.568C348.961 385.692 348.335 387.211 348.335 388.794C348.335 390.377 348.961 391.895 350.075 393.019C351.19 394.143 352.704 394.781 354.286 394.794V394.794Z" fill="black"/>
<path d="M704.007 358.131L601.32 314.125C600.013 313.566 598.549 313.488 597.19 313.907C595.831 314.325 594.665 315.213 593.9 316.412L568.088 356.833L236.199 356.186L201.12 316.643C200.559 316.009 199.869 315.502 199.097 315.154C198.326 314.806 197.489 314.626 196.643 314.625L66.3469 314.376C65.1898 314.374 64.0567 314.706 63.0842 315.333C62.1117 315.96 61.3412 316.855 60.8656 317.91C60.3901 318.965 60.2296 320.135 60.4037 321.279C60.5778 322.422 61.079 323.492 61.8469 324.357L95.6904 362.507L62.0053 400.513C61.2392 401.377 60.739 402.444 60.5645 403.586C60.3901 404.728 60.5489 405.895 61.0219 406.949C61.4949 408.003 62.2619 408.898 63.231 409.526C64.2 410.155 65.3298 410.49 66.4848 410.492L196.781 410.741C197.631 410.743 198.472 410.564 199.248 410.215C200.024 409.867 200.718 409.358 201.282 408.721L237.206 368.189L567.348 368.831L594.886 411.5C595.732 412.346 596.811 412.919 597.985 413.146C599.16 413.374 600.375 413.245 601.475 412.777L703.992 369.167C705.074 368.707 705.997 367.939 706.646 366.959C707.295 365.979 707.642 364.829 707.644 363.654C707.645 362.478 707.301 361.328 706.655 360.346C706.008 359.364 705.087 358.594 704.007 358.131V358.131ZM193.927 326.621L220.128 356.157L193.479 356.105L167.279 326.571L193.927 326.621ZM151.213 326.537L177.413 356.072L147.301 356.012L121.102 326.48L151.213 326.537ZM105.896 355.929L79.7027 326.402L105.036 326.45L131.234 355.983L105.896 355.929ZM79.806 398.514L106.912 367.931L132.307 367.984L105.202 398.567L79.806 398.514ZM121.208 398.593L148.313 368.012L178.483 368.071L151.379 398.651L121.208 398.593ZM167.387 398.681L194.489 368.101L221.196 368.154L194.094 398.732L167.387 398.681ZM578.125 363.404L598.289 331.827L613.952 363.495L598.431 395.067L578.125 363.404ZM611.629 395.415L626.026 366.139C626.432 365.313 626.643 364.405 626.642 363.485C626.64 362.564 626.428 361.657 626.02 360.832L611.546 331.563L686.367 363.629L611.629 395.415Z" fill="black"/>
</g>
<defs>
<clipPath id="clip0">
<rect width="512" height="512" fill="white" transform="translate(363 0.961334) rotate(45)"/>
</clipPath>
</defs>
</svg>
