<svg width="724" height="724" viewBox="0 0 724 724" fill="none" xmlns="http://www.w3.org/2000/svg">
<g clip-path="url(#clip0)">
<path d="M204.236 334.713C203.67 334.164 203.001 333.733 202.268 333.445C201.534 333.156 200.751 333.015 199.963 333.03L194.666 333.122C193.075 333.15 191.56 333.809 190.455 334.954C189.35 336.098 188.744 337.635 188.772 339.227C188.8 340.818 189.459 342.332 190.603 343.438C191.748 344.543 193.285 345.149 194.876 345.121L200.173 345.028C201.36 345.008 202.514 344.636 203.489 343.959C204.464 343.283 205.217 342.332 205.652 341.228C206.086 340.124 206.184 338.915 205.932 337.756C205.68 336.596 205.09 335.537 204.236 334.713V334.713Z" fill="black"/>
<path d="M370.157 330.059L219.965 332.681C218.374 332.708 216.86 333.367 215.754 334.512C214.649 335.657 214.043 337.194 214.071 338.785C214.099 340.376 214.758 341.891 215.903 342.996C217.048 344.102 218.585 344.707 220.176 344.679L370.367 342.057C371.949 342.016 373.451 341.352 374.546 340.209C375.641 339.066 376.24 337.537 376.212 335.954C376.185 334.371 375.533 332.864 374.399 331.76C373.265 330.656 371.74 330.044 370.157 330.059V330.059Z" fill="black"/>
<path d="M21.1306 372.82L124.57 415.026C125.886 415.563 127.351 415.615 128.702 415.173C130.054 414.731 131.204 413.823 131.948 412.611L157.051 371.746L488.901 366.6L524.664 405.525C525.237 406.148 525.935 406.644 526.713 406.978C527.49 407.312 528.33 407.478 529.176 407.464L659.457 405.439C660.614 405.421 661.741 405.069 662.702 404.425C663.663 403.781 664.418 402.873 664.875 401.81C665.332 400.747 665.472 399.575 665.278 398.434C665.084 397.293 664.565 396.233 663.782 395.381L629.277 357.827L662.294 319.24C663.045 318.362 663.527 317.286 663.681 316.142C663.836 314.997 663.656 313.832 663.165 312.787C662.674 311.742 661.891 310.861 660.911 310.249C659.932 309.638 658.796 309.322 657.641 309.34L527.361 311.365C526.511 311.378 525.673 311.572 524.903 311.934C524.133 312.296 523.449 312.817 522.896 313.463L487.685 354.617L157.581 359.736L129.303 317.554C128.442 316.723 127.353 316.169 126.175 315.962C124.997 315.755 123.785 315.905 122.692 316.393L20.9521 361.785C19.8784 362.264 18.9691 363.047 18.3371 364.039C17.7051 365.03 17.3784 366.186 17.3974 367.361C17.4164 368.537 17.7804 369.681 18.4441 370.651C19.1078 371.622 20.0419 372.376 21.1306 372.82V372.82ZM531.683 395.423L504.97 366.349L531.616 365.935L558.327 395.008L531.683 395.423ZM574.391 394.761L547.68 365.688L577.788 365.222L604.498 394.293L574.391 394.761ZM619.188 364.583L645.893 393.648L620.563 394.042L593.853 364.971L619.188 364.583ZM644.531 321.548L617.963 352.601L592.571 352.99L619.138 321.939L644.531 321.548ZM603.134 322.193L576.567 353.242L546.401 353.71L572.967 322.661L603.134 322.193ZM556.961 322.91L530.396 353.959L503.692 354.372L530.256 323.325L556.961 322.91ZM146.901 365.35L127.291 397.274L111.078 365.885L126.046 334.047L146.901 365.35ZM112.844 333.929L98.9593 363.452C98.5679 364.285 98.3732 365.196 98.3903 366.116C98.4075 367.037 98.636 367.94 99.0583 368.758L114.041 397.77L38.6714 367.014L112.844 333.929Z" fill="black"/>
</g>
<defs>
<clipPath id="clip0">
<rect width="512" height="512" fill="white" transform="translate(368.318 723.983) rotate(-136)"/>
</clipPath>
</defs>
</svg>
